<svg id="mermaid-1671046769259" width="100%" xmlns="http://www.w3.org/2000/svg" xmlns:xlink="http://www.w3.org/1999/xlink" height="1002.40625" style="max-width: 1405.63671875px;" viewBox="-20 -20 1405.63671875 1002.40625"><style>#mermaid-1671046769259{font-family:"trebuchet ms",verdana,arial,sans-serif;font-size:16px;fill:#333;}#mermaid-1671046769259 .error-icon{fill:#552222;}#mermaid-1671046769259 .error-text{fill:#552222;stroke:#552222;}#mermaid-1671046769259 .edge-thickness-normal{stroke-width:2px;}#mermaid-1671046769259 .edge-thickness-thick{stroke-width:3.5px;}#mermaid-1671046769259 .edge-pattern-solid{stroke-dasharray:0;}#mermaid-1671046769259 .edge-pattern-dashed{stroke-dasharray:3;}#mermaid-1671046769259 .edge-pattern-dotted{stroke-dasharray:2;}#mermaid-1671046769259 .marker{fill:#333333;stroke:#333333;}#mermaid-1671046769259 .marker.cross{stroke:#333333;}#mermaid-1671046769259 svg{font-family:"trebuchet ms",verdana,arial,sans-serif;font-size:16px;}#mermaid-1671046769259 g.classGroup text{fill:#9370DB;fill:#131300;stroke:none;font-family:"trebuchet ms",verdana,arial,sans-serif;font-size:10px;}#mermaid-1671046769259 g.classGroup text .title{font-weight:bolder;}#mermaid-1671046769259 .classTitle{font-weight:bolder;}#mermaid-1671046769259 .node rect,#mermaid-1671046769259 .node circle,#mermaid-1671046769259 .node ellipse,#mermaid-1671046769259 .node polygon,#mermaid-1671046769259 .node path{fill:#ECECFF;stroke:#9370DB;stroke-width:1px;}#mermaid-1671046769259 .divider{stroke:#9370DB;stroke:1;}#mermaid-1671046769259 g.clickable{cursor:pointer;}#mermaid-1671046769259 g.classGroup rect{fill:#ECECFF;stroke:#9370DB;}#mermaid-1671046769259 g.classGroup line{stroke:#9370DB;stroke-width:1;}#mermaid-1671046769259 .classLabel .box{stroke:none;stroke-width:0;fill:#ECECFF;opacity:0.5;}#mermaid-1671046769259 .classLabel .label{fill:#9370DB;font-size:10px;}#mermaid-1671046769259 .relation{stroke:#333333;stroke-width:1;fill:none;}#mermaid-1671046769259 .dashed-line{stroke-dasharray:3;}#mermaid-1671046769259 #compositionStart,#mermaid-1671046769259 .composition{fill:#333333 !important;stroke:#333333 !important;stroke-width:1;}#mermaid-1671046769259 #compositionEnd,#mermaid-1671046769259 .composition{fill:#333333 !important;stroke:#333333 !important;stroke-width:1;}#mermaid-1671046769259 #dependencyStart,#mermaid-1671046769259 .dependency{fill:#333333 !important;stroke:#333333 !important;stroke-width:1;}#mermaid-1671046769259 #dependencyStart,#mermaid-1671046769259 .dependency{fill:#333333 !important;stroke:#333333 !important;stroke-width:1;}#mermaid-1671046769259 #extensionStart,#mermaid-1671046769259 .extension{fill:#333333 !important;stroke:#333333 !important;stroke-width:1;}#mermaid-1671046769259 #extensionEnd,#mermaid-1671046769259 .extension{fill:#333333 !important;stroke:#333333 !important;stroke-width:1;}#mermaid-1671046769259 #aggregationStart,#mermaid-1671046769259 .aggregation{fill:#ECECFF !important;stroke:#333333 !important;stroke-width:1;}#mermaid-1671046769259 #aggregationEnd,#mermaid-1671046769259 .aggregation{fill:#ECECFF !important;stroke:#333333 !important;stroke-width:1;}#mermaid-1671046769259 .edgeTerminals{font-size:11px;}#mermaid-1671046769259:root{--mermaid-font-family:"trebuchet ms",verdana,arial,sans-serif;}</style><g></g><defs><marker id="extensionStart" class="extension" refX="0" refY="7" markerWidth="190" markerHeight="240" orient="auto"><path d="M 1,7 L18,13 V 1 Z"></path></marker></defs><defs><marker id="extensionEnd" refX="19" refY="7" markerWidth="20" markerHeight="28" orient="auto"><path d="M 1,1 V 13 L18,7 Z"></path></marker></defs><defs><marker id="compositionStart" class="extension" refX="0" refY="7" markerWidth="190" markerHeight="240" orient="auto"><path d="M 18,7 L9,13 L1,7 L9,1 Z"></path></marker></defs><defs><marker id="compositionEnd" refX="19" refY="7" markerWidth="20" markerHeight="28" orient="auto"><path d="M 18,7 L9,13 L1,7 L9,1 Z"></path></marker></defs><defs><marker id="aggregationStart" class="extension" refX="0" refY="7" markerWidth="190" markerHeight="240" orient="auto"><path d="M 18,7 L9,13 L1,7 L9,1 Z"></path></marker></defs><defs><marker id="aggregationEnd" refX="19" refY="7" markerWidth="20" markerHeight="28" orient="auto"><path d="M 18,7 L9,13 L1,7 L9,1 Z"></path></marker></defs><defs><marker id="dependencyStart" class="extension" refX="0" refY="7" markerWidth="190" markerHeight="240" orient="auto"><path d="M 5,7 L9,13 L1,7 L9,1 Z"></path></marker></defs><defs><marker id="dependencyEnd" refX="19" refY="7" markerWidth="20" markerHeight="28" orient="auto"><path d="M 18,7 L9,13 L14,7 L9,1 Z"></path></marker></defs><g id="classid-Serial-0" class="classGroup" transform="translate(44.3515625,115.53125 )"><rect x="0" y="0" width="93.125" height="77.09375" class=" "></rect><text y="15" x="0"><tspan x="24.875">«Built-in»</tspan><tspan class="title" dy="10" x="33.359375">Serial</tspan></text><line x1="0" y1="31" y2="31" x2="93.125"></line><text x="5" y="41" fill="white" class="classText"></text><line x1="0" y1="36" y2="36" x2="93.125"></line><text x="5" y="51" fill="white" class="classText"><tspan x="5">+serialEvent()</tspan><tspan x="5" dy="10">+serialAvailable()</tspan><tspan x="5" dy="10">+read()</tspan></text></g><g id="classid-BufferClass-1" class="classGroup" transform="translate(0,413.109375 )"><rect x="0" y="0" width="181.828125" height="108.15625" class=" "></rect><text y="15" x="0"><tspan class="title" x="64.7734375">BufferClass</tspan></text><line x1="0" y1="21" y2="21" x2="181.828125"></line><text x="5" y="31" fill="white" class="classText"><tspan x="5">-buffer[MAX_BUFFER_LENGTH] : char</tspan><tspan x="5" dy="10">unsigned int</tspan></text><line x1="0" y1="47.0625" y2="47.0625" x2="181.828125"></line><text x="5" y="62.0625" fill="white" class="classText"><tspan x="5">+get()</tspan><tspan x="5" dy="10">char inChar</tspan><tspan x="5" dy="10">+wipe()</tspan><tspan x="5" dy="10">+bool isEmpty</tspan><tspan x="5" dy="10">+parseString(char *inBuffer)</tspan></text></g><g id="classid-Device-2" class="classGroup" transform="translate(518.6015625,626.21875 )"><rect x="0" y="0" width="116.28125" height="98.09375" class=" "></rect><text y="15" x="0"><tspan class="title" x="42.4921875">Device</tspan></text><line x1="0" y1="21" y2="21" x2="116.28125"></line><text x="5" y="31" fill="white" class="classText"><tspan x="5">-batteryPower : bool</tspan><tspan x="5" dy="10">-avionics1Power : bool</tspan><tspan x="5" dy="10">-avionics2Power : bool</tspan></text><line x1="0" y1="57" y2="57" x2="116.28125"></line><text x="5" y="72" fill="white" class="classText"><tspan x="5">+isBatteryPowerOn()</tspan><tspan x="5" dy="10">+isAvionics1PowerOn()</tspan><tspan x="5" dy="10">+isAvionics2PowerOn()</tspan></text></g><g id="classid-ClockDavtronM803-3" class="classGroup" transform="translate(301.84375,774.3125 )"><rect x="0" y="0" width="166.609375" height="188.09375" class=" "></rect><text y="15" x="0"><tspan class="title" x="39.7109375">ClockDavtronM803</tspan></text><line x1="0" y1="21" y2="21" x2="166.609375"></line><text x="5" y="31" fill="white" class="classText"><tspan x="5">-STD_ALTIMETER_inHg : float</tspan><tspan x="5" dy="10">-timeMode : TimeModeTyp</tspan><tspan x="5" dy="10">-localTime : uint32_t</tspan><tspan x="5" dy="10">-utc : uint32_t</tspan><tspan x="5" dy="10">-flightTime : uint32_t</tspan><tspan x="5" dy="10">-elapsedTime : uint32_t</tspan><tspan x="5" dy="10">-oatVoltsMode : OatVoltsModeTyp</tspan><tspan x="5" dy="10">-temperatureC : unit8_t</tspan><tspan x="5" dy="10">-powerStatus : PowerStatusTyp</tspan><tspan x="5" dy="10">-altimeter : float</tspan></text><line x1="0" y1="127" y2="127" x2="166.609375"></line><text x="5" y="142" fill="white" class="classText"><tspan x="5">+getLocalTimeDigits()</tspan><tspan x="5" dy="10">+toggleOatVoltsMode()</tspan><tspan x="5" dy="10">+toggleTimeMode()</tspan><tspan x="5" dy="10">+process(EventClass event)</tspan><tspan x="5" dy="10">-qnh(float &amp;altimeter)</tspan></text></g><g id="classid-DispatcherClass-4" class="classGroup" transform="translate(294.2109375,651.6875 )"><rect x="0" y="0" width="140.9375" height="47.15625" class=" "></rect><text y="15" x="0"><tspan class="title" x="34.015625">DispatcherClass</tspan></text><line x1="0" y1="21.0625" y2="21.0625" x2="140.9375"></line><text x="5" y="31.0625" fill="white" class="classText"></text><line x1="0" y1="26.0625" y2="26.0625" x2="140.9375"></line><text x="5" y="41.0625" fill="white" class="classText"><tspan x="5">+dispatch(EventClass event)</tspan></text></g><g id="classid-EventClass-5" class="classGroup" transform="translate(2.28125,809.3125 )"><rect x="0" y="0" width="197.265625" height="118.09375" class=" "></rect><text y="15" x="0"><tspan class="title" x="73.8359375">EventClass</tspan></text><line x1="0" y1="21" y2="21" x2="197.265625"></line><text x="5" y="31" fill="white" class="classText"><tspan x="5">+device[MAX_SRC_DEV_LENGTH] : char</tspan><tspan x="5" dy="10">+event[MAX_SRC_DEV_LENGTH] : char</tspan><tspan x="5" dy="10">+parameter1[MAX_PARA_LENGTH] : char</tspan><tspan x="5" dy="10">+parameter2[MAX_PARA_LENGTH] : char</tspan><tspan x="5" dy="10">-EventClass* next</tspan></text><line x1="0" y1="77" y2="77" x2="197.265625"></line><text x="5" y="92" fill="white" class="classText"><tspan x="5">+EventClass()</tspan><tspan x="5" dy="10">+setNext(EventClass* next)</tspan><tspan x="5" dy="10">+getNext()</tspan></text></g><g id="classid-EventQueueClass-6" class="classGroup" transform="translate(63.1484375,626.21875 )"><rect x="0" y="0" width="181.0625" height="98.09375" class=" "></rect><text y="15" x="0"><tspan class="title" x="50.53125">EventQueueClass</tspan></text><line x1="0" y1="21" y2="21" x2="181.0625"></line><text x="5" y="31" fill="white" class="classText"><tspan x="5">-head : EventClass*</tspan><tspan x="5" dy="10">-tail : EventClass*</tspan></text><line x1="0" y1="47" y2="47" x2="181.0625"></line><text x="5" y="62" fill="white" class="classText"><tspan x="5">+EventQueueClass()</tspan><tspan x="5" dy="10">+addEvent(EventClass* ptrNewEvent)</tspan><tspan x="5" dy="10">+getNextEvent()</tspan><tspan x="5" dy="10">+deleteEvent()</tspan></text></g><g id="classid-TransponderKT76C-7" class="classGroup" transform="translate(518.453125,844.78125 )"><rect x="0" y="0" width="136.578125" height="47.15625" class=" "></rect><text y="15" x="0"><tspan class="title" x="23.6484375">TransponderKT76C</tspan></text><line x1="0" y1="21.0625" y2="21.0625" x2="136.578125"></line><text x="5" y="31.0625" fill="white" class="classText"></text><line x1="0" y1="26.0625" y2="26.0625" x2="136.578125"></line><text x="5" y="41.0625" fill="white" class="classText"><tspan x="5">+process(EventClass event)</tspan></text></g><g id="classid-SpeedClass-8" class="classGroup" transform="translate(231.828125,423.09375 )"><rect x="0" y="0" width="174.765625" height="88.1875" class=" "></rect><text y="15" x="0"><tspan class="title" x="61.7578125">SpeedClass</tspan></text><line x1="0" y1="21.0625" y2="21.0625" x2="174.765625"></line><text x="5" y="31.0625" fill="white" class="classText"><tspan x="5">unsigned long</tspan><tspan x="5" dy="10">unsigned long</tspan></text><line x1="0" y1="47.125" y2="47.125" x2="174.765625"></line><text x="5" y="62.125" fill="white" class="classText"><tspan x="5">+SpeedClass(brightTime, darkTime)</tspan><tspan x="5" dy="10">unsigned long</tspan><tspan x="5" dy="10">unsigned long</tspan></text></g><g id="classid-DisplayField-9" class="classGroup" transform="translate(456.59375,436.625 )"><rect x="0" y="0" width="252.890625" height="61.125" class=" "></rect><text y="15" x="0"><tspan class="title" x="98.203125">DisplayField</tspan></text><line x1="0" y1="21.0625" y2="21.0625" x2="252.890625"></line><text x="5" y="31.0625" fill="white" class="classText"><tspan x="5">+led7SegmentRows[MAX_7SEGMENT_UNITS] : uint8_t</tspan><tspan x="5" dy="10">+led7SegmentCol0s[MAX_7SEGMENT_UNITS] : uint8_t</tspan><tspan x="5" dy="10">+count7SegmentUnits : uint8_t</tspan></text><line x1="0" y1="57.125" y2="57.125" x2="252.890625"></line><text x="5" y="72.125" fill="white" class="classText"></text></g><g id="classid-LedMatrixPos-10" class="classGroup" transform="translate(759.484375,441.6875 )"><rect x="0" y="0" width="78.84375" height="51" class=" "></rect><text y="15" x="0"><tspan class="title" x="8.203125">LedMatrixPos</tspan></text><line x1="0" y1="21" y2="21" x2="78.84375"></line><text x="5" y="31" fill="white" class="classText"><tspan x="5">+row : uint8_t</tspan><tspan x="5" dy="10">+col : uint8_t</tspan></text><line x1="0" y1="47" y2="47" x2="78.84375"></line><text x="5" y="62" fill="white" class="classText"></text></g><g id="classid-LedMatrix-11" class="classGroup" transform="translate(482.87109375,0 )"><rect x="0" y="0" width="416.203125" height="308.15625" class=" "></rect><text y="15" x="0"><tspan class="title" x="184.796875">LedMatrix</tspan></text><line x1="0" y1="21" y2="21" x2="416.203125"></line><text x="5" y="31" fill="white" class="classText"><tspan x="5">-matrix[LED_ROWS] : uint32_t</tspan><tspan x="5" dy="10">-hwMatrix[LED_ROWS] : uint32_t</tspan><tspan x="5" dy="10">-displays[MAX_DISPLAY_FIELDS] : DisplayField</tspan><tspan x="5" dy="10">-charMap : Led7SegmentCharMap</tspan><tspan x="5" dy="10">-blinkStatus[NO_OF_SPEED_CLASSES][LED_ROWS] : uint32_t</tspan><tspan x="5" dy="10">unsigned long</tspan><tspan x="5" dy="10">-isBlinkDarkPhase[NO_OF_SPEED_CLASSES] : bool</tspan><tspan x="5" dy="10">unsigned long</tspan></text><line x1="0" y1="107.0625" y2="107.0625" x2="416.203125"></line><text x="5" y="122.0625" fill="white" class="classText"><tspan x="5">+LedMatrix()</tspan><tspan x="5" dy="10">+initHardware()</tspan><tspan x="5" dy="10">+writeToHardware()</tspan><tspan x="5" dy="10">LedMatrixPos pos</tspan><tspan x="5" dy="10">LedMatrixPos pos</tspan><tspan x="5" dy="10">LedMatrixPos pos</tspan><tspan x="5" dy="10">LedMatrixPos pos</tspan><tspan x="5" dy="10">LedMatrixPos pos</tspan><tspan x="5" dy="10">LedMatrixPos pos</tspan><tspan x="5" dy="10">LedMatrixPos pos</tspan><tspan x="5" dy="10">+set7SegValue(LedMatrixPos pos, uint8_t charBitMap, bool dpOn)</tspan><tspan x="5" dy="10">+set7SegBlinkOn(LedMatrixPos pos, bool dpBlink, uint8_t blinkSpeed)</tspan><tspan x="5" dy="10">LedMatrixPos pos</tspan><tspan x="5" dy="10">+defineDisplayField(uint8_t &amp;fieldId, uint8_t &amp;led7SegmentId, LedMatrixPos &amp;matrixPos)</tspan><tspan x="5" dy="10">+display(uint8_t &amp;fieldId, String &amp;outString)</tspan><tspan x="5" dy="10">LedMatrixPos pos</tspan><tspan x="5" dy="10">uint8_t blinkSpeed</tspan><tspan x="5" dy="10">-isSomethingToBlink()</tspan><tspan x="5" dy="10">-doBlink()</tspan></text></g><g id="classid-Led7SegmentCharMap-12" class="classGroup" transform="translate(888.328125,433.15625 )"><rect x="0" y="0" width="113.28125" height="68.0625" class=" "></rect><text y="15" x="0"><tspan class="title" x="5">Led7SegmentCharMap</tspan></text><line x1="0" y1="21.0625" y2="21.0625" x2="113.28125"></line><text x="5" y="31.0625" fill="white" class="classText"><tspan x="5">-bitMap[] : uint8_t</tspan><tspan x="5" dy="10">-charsAllowed : char*</tspan></text><line x1="0" y1="47.0625" y2="47.0625" x2="113.28125"></line><text x="5" y="62.0625" fill="white" class="classText"><tspan x="5">char outChar</tspan></text></g><g id="classid-SwitchMatrix-13" class="classGroup" transform="translate(1032.02734375,90.046875 )"><rect x="0" y="0" width="333.609375" height="128.0625" class=" "></rect><text y="15" x="0"><tspan class="title" x="136.5703125">SwitchMatrix</tspan></text><line x1="0" y1="21" y2="21" x2="333.609375"></line><text x="5" y="31" fill="white" class="classText"><tspan x="5">-switchMatrix[SWITCH_MATRIX_ROWS][SWITCH_MATRIX_COLS] : Switch</tspan><tspan x="5" dy="10">-changed : bool</tspan><tspan x="5" dy="10">unsigned int</tspan></text><line x1="0" y1="57.0625" y2="57.0625" x2="333.609375"></line><text x="5" y="72.0625" fill="white" class="classText"><tspan x="5">+initHardware()</tspan><tspan x="5" dy="10">+scanSwitchPins()</tspan><tspan x="5" dy="10">+transmitStatus(bool changedOnly)</tspan><tspan x="5" dy="10">const uint8_t</tspan><tspan x="5" dy="10">const uint8_t</tspan><tspan x="5" dy="10">const uint8_t</tspan></text></g><g id="classid-Switch-14" class="classGroup" transform="translate(1076.58984375,358.15625 )"><rect x="0" y="0" width="244.484375" height="218.0625" class=" "></rect><text y="15" x="0"><tspan class="title" x="106.765625">Switch</tspan></text><line x1="0" y1="21" y2="21" x2="244.484375"></line><text x="5" y="31" fill="white" class="classText"><tspan x="5">-uint8_t status</tspan><tspan x="5" dy="10">-longOn : bool</tspan><tspan x="5" dy="10">-longOnSent : bool</tspan><tspan x="5" dy="10">unsigned long</tspan><tspan x="5" dy="10">unsigned long</tspan><tspan x="5" dy="10">-changed : bool</tspan><tspan x="5" dy="10">-uint8_t history</tspan></text><line x1="0" y1="97.0625" y2="97.0625" x2="244.484375"></line><text x="5" y="112.0625" fill="white" class="classText"><tspan x="5">+setOn()</tspan><tspan x="5" dy="10">+setOff()</tspan><tspan x="5" dy="10">+checkLongOn()</tspan><tspan x="5" dy="10">+updateOnTime(const unsigned long &amp;newOnTime)</tspan><tspan x="5" dy="10">+transmitStatus(uint8_t row, uint8_t col)</tspan><tspan x="5" dy="10">+isOn()</tspan><tspan x="5" dy="10">+isChanged()</tspan><tspan x="5" dy="10">+getStatus()</tspan><tspan x="5" dy="10">+getStatusNoChange()</tspan><tspan x="5" dy="10">-static unsigned</tspan><tspan x="5" dy="10">-uint8_t debounce</tspan></text></g><path d="M90.9140625,192.625L90.9140625,216.046875C90.9140625,239.46875,90.9140625,286.3125,90.9140625,323.0598958333333C90.9140625,359.8072916666667,90.9140625,386.4583333333333,90.9140625,399.7838541666667L90.9140625,413.109375" id="edge0" class="relation"></path><path d="M65.5897645138727,521.265625L59.34954334489391,534.5911458333334C53.10932217591513,547.9166666666666,40.62887983795756,574.5677083333334,34.388658668978785,600.234375C28.1484375,625.9010416666666,28.1484375,650.5833333333334,28.1484375,675.265625C28.1484375,699.9479166666666,28.1484375,724.6302083333334,34.26078820219189,746.9713541666666C40.37313890438378,769.3125,52.59784030876756,789.3125,58.71019101095945,799.3125L64.82254171315134,809.3125" id="edge1" class="relation"></path><path d="M116.2383604861273,521.265625L122.47858165510608,534.5911458333334C128.71880282408486,547.9166666666666,141.19924516204244,574.5677083333334,147.4394663310212,592.0598958333334C153.6796875,609.5520833333334,153.6796875,617.8854166666666,153.6796875,622.0520833333334L153.6796875,626.21875" id="edge2" class="relation"></path><path d="M153.6796875,724.3125L153.6796875,728.4791666666666C153.6796875,732.6458333333334,153.6796875,740.9791666666666,149.24734729787374,755.1458333333334C144.81500709574746,769.3125,135.95032669149495,789.3125,131.51798648936867,799.3125L127.08564628724241,809.3125" id="edge3" class="relation" marker-end="url(#aggregationEnd)"></path><g class="cardinality"><text class="type1" x="148.6796875" y="736.8125" fill="black" font-size="6">1</text></g><g class="cardinality"><text class="type2" x="141.29304147546958" y="801.9368697241837" fill="black" font-size="6">n</text></g><path d="M331.0862078629458,698.84375L319.1017878024548,707.2552083333334C307.11736774196385,715.6666666666666,283.14852762098195,732.4895833333334,257.8697119705185,750.9010416666666C232.59089632005512,769.3125,206.00210514011027,789.3125,192.70770955013782,799.3125L179.4133139601654,809.3125" id="edge4" class="relation"></path><path d="M364.6796875,698.84375L364.6796875,707.2552083333334C364.6796875,715.6666666666666,364.6796875,732.4895833333334,365.39609822756705,745.0677083333334C366.11250895513405,757.6458333333334,367.5453304102682,765.9791666666666,368.26174113783526,770.1458333333334L368.9781518654023,774.3125" id="edge5" class="relation"></path><path d="M406.4774988789829,698.84375L421.3888011491524,707.2552083333334C436.30010341932194,715.6666666666666,466.122707959661,732.4895833333334,493.16965590183463,756.8125C520.2166038440083,781.1354166666666,544.4878951880168,812.9583333333334,556.623540860021,828.8697916666666L568.7591865320252,844.78125" id="edge6" class="relation"></path><path d="M518.6015625,717.9765879321036L511.4921875,723.1992399434197C504.3828125,728.4218919547357,490.1640625,738.8671959773678,479.87677701305944,748.2565146553507C469.58949152611893,757.6458333333334,463.2336705522378,765.9791666666666,460.0557600652973,770.1458333333334L456.87784957835675,774.3125" id="edge7" class="relation" marker-end="url(#extensionEnd)"></path><g class="cardinality"><text class="type1" x="505.5674845033095" y="721.3474647877881" fill="black" font-size="6">1</text></g><g class="cardinality"><text class="type2" x="472.4096541098541" y="770.4378325309962" fill="black" font-size="6">1</text></g><path d="M589.9897080739607,724.3125L591.115121311634,728.4791666666666C592.2405345493072,732.6458333333334,594.4913610246535,740.9791666666666,594.2802034087589,761.0572916666666C594.0690457928644,781.1354166666666,591.3959040857286,812.9583333333334,590.0593332321608,828.8697916666666L588.722762378593,844.78125" id="edge8" class="relation" marker-end="url(#extensionEnd)"></path><g class="cardinality"><text class="type1" x="588.4221218008523" y="737.6838377519365" fill="black" font-size="6">1</text></g><g class="cardinality"><text class="type2" x="599.733989135717" y="833.1621757983609" fill="black" font-size="6">1</text></g><path d="M783.8383021769479,308.15625L786.3496268141231,312.3229166666667C788.8609514512985,316.4895833333333,793.8836007256492,324.8229166666667,796.3949253628247,347.078125C798.90625,369.3333333333333,798.90625,405.5104166666667,798.90625,423.5989583333333L798.90625,441.6875" id="edge9" class="relation" marker-end="url(#dependencyEnd)"></path><path d="M598.1070103230521,308.15625L595.5956856858768,312.3229166666667C593.0843610487015,316.4895833333333,588.0617117743508,324.8229166666667,585.5503871371753,346.234375C583.0390625,367.6458333333333,583.0390625,402.1354166666667,583.0390625,419.3802083333333L583.0390625,436.625" id="edge10" class="relation" marker-end="url(#compositionEnd)"></path><g class="cardinality"><text class="type1" x="587.3721097703162" y="316.2810213889604" fill="black" font-size="6">1</text></g><g class="cardinality"><text class="type2" x="593.0390625" y="424.125" fill="black" font-size="6">n</text></g><path d="M482.87109375,254.3209303845184L455.5944010416667,267.460150320432C428.3177083333333,280.5993702563456,373.7643229166667,306.8778101281728,346.4876302083333,335.0066133974197C319.2109375,363.1354166666667,319.2109375,393.1145833333333,319.2109375,408.1041666666667L319.2109375,423.09375" id="edge11" class="relation" marker-end="url(#compositionEnd)"></path><path d="M899.07421875,300.7986397601618L906.7233072916666,306.1915748001348C914.3723958333334,311.58450984010784,929.6705729166666,322.37037992005395,937.3196614583334,344.42998162669363C944.96875,366.4895833333333,944.96875,399.8229166666667,944.96875,416.4895833333333L944.96875,433.15625" id="edge12" class="relation" marker-end="url(#compositionEnd)"></path><path d="M1198.83203125,218.109375L1198.83203125,237.28385416666666C1198.83203125,256.4583333333333,1198.83203125,294.8072916666667,1198.83203125,318.1484375C1198.83203125,341.4895833333333,1198.83203125,349.8229166666667,1198.83203125,353.9895833333333L1198.83203125,358.15625" id="edge13" class="relation" marker-end="url(#compositionEnd)"></path></svg>